# Blender v3.1.2 OBJ File: 'platform.blend'
# www.blender.org
mtllib platform.mtl
o Circle
v 0.000000 0.000000 -2.001780
v -1.565055 0.000000 -1.248089
v -1.951591 0.000000 0.445438
v -0.868540 0.000000 1.803541
v 0.868540 0.000000 1.803541
v 1.951591 0.000000 0.445438
v 1.565055 0.000000 -1.248089
v 0.000000 0.714107 -2.001780
v -1.565055 0.714107 -1.248089
v -1.951591 0.714107 0.445438
v -0.868540 0.714107 1.803541
v 0.868540 0.714107 1.803541
v 1.951591 0.714107 0.445438
v 1.565055 0.714107 -1.248089
v 0.000000 1.223995 1.096181
v 0.857029 1.223995 0.683458
v 1.068697 1.223995 -0.243923
v 0.475615 1.223995 -0.987625
v -0.475615 1.223995 -0.987625
v -1.068697 1.223995 -0.243923
v -0.857029 1.223995 0.683458
v 0.000000 1.443578 1.096181
v 0.857029 1.443578 0.683458
v 1.068697 1.443578 -0.243923
v 0.475615 1.443578 -0.987625
v -0.475615 1.443578 -0.987625
v -1.068697 1.443578 -0.243923
v -0.857029 1.443578 0.683458
v 0.868540 0.357053 1.803541
v -0.868540 0.357053 1.803541
v -1.951591 0.357053 0.445438
v -1.565055 0.357053 -1.248089
v 0.000000 0.357053 -2.001780
v 1.565055 0.357053 -1.248089
v 1.951591 0.357053 0.445438
vt 0.872350 0.587500
vt 0.857551 0.625913
vt 0.824298 0.635400
vt 0.797632 0.608817
vt 0.797632 0.566182
vt 0.824298 0.539600
vt 0.857551 0.549087
vt 0.672494 0.207917
vt 0.780434 0.176336
vt 0.770880 0.314954
vt 0.753396 0.304266
vt 0.856257 0.532721
vt 0.819888 0.542476
vt 0.812600 0.533170
vt 0.858158 0.520025
vt 0.884710 0.612327
vt 0.885179 0.563864
vt 0.894340 0.557801
vt 0.894340 0.617157
vt 0.819000 0.631712
vt 0.855161 0.642594
vt 0.858170 0.654975
vt 0.812651 0.641994
vt 0.805851 0.586885
vt 0.795812 0.587434
vt 0.879652 0.550957
vt 0.879652 0.596084
vt 0.871545 0.591718
vt 0.872071 0.556783
vt 0.673724 0.457085
vt 0.624962 0.332970
vt 0.735440 0.314467
vt 0.730394 0.338009
vt 0.867324 0.400268
vt 0.781765 0.486164
vt 0.741948 0.357042
vt 0.761397 0.356138
vt 0.867324 0.262195
vt 0.774778 0.338327
vt 0.600235 0.543188
vt 0.725161 0.507546
vt 0.825344 0.607413
vt 0.825344 0.767587
vt 0.725161 0.867454
vt 0.600235 0.831812
vt 0.544637 0.687500
vt 0.814192 0.537516
vt 0.849669 0.525950
vt 0.848719 0.536886
vt 0.820175 0.545700
vt 0.815052 0.618819
vt 0.798421 0.578637
vt 0.807259 0.577915
vt 0.819668 0.609277
vt 0.850855 0.624050
vt 0.848083 0.613728
vt 0.195069 0.686011
vt 0.226917 0.794584
vt 0.211540 0.819489
vt 0.170754 0.687339
vt 0.314502 0.820941
vt 0.386074 0.747633
vt 0.409398 0.759331
vt 0.321790 0.850931
vt 0.387209 0.630252
vt 0.317158 0.554821
vt 0.321761 0.524069
vt 0.409398 0.615567
vt 0.229067 0.578449
vt 0.211416 0.555908
vn 0.0000 -1.0000 0.0000
vn 0.1752 0.9837 -0.0400
vn 0.0000 0.0000 1.0000
vn -0.9749 0.0000 -0.2225
vn 0.4339 0.0000 -0.9010
vn 0.7818 0.0000 0.6235
vn -0.7818 0.0000 0.6235
vn -0.4339 0.0000 -0.9010
vn 0.9749 0.0000 -0.2225
vn -0.7818 0.0000 -0.6235
vn 0.0000 0.9837 0.1797
vn -0.1752 0.9837 -0.0400
vn 0.0780 0.9837 -0.1619
vn 0.1405 0.9837 0.1120
vn -0.1405 0.9837 0.1120
vn -0.0780 0.9837 -0.1619
vn 0.0000 1.0000 0.0000
vn 0.7818 0.0000 -0.6235
vn 0.4339 0.0000 0.9010
vn -0.9749 0.0000 0.2225
vn 0.0000 0.0000 -1.0000
vn 0.9749 0.0000 0.2225
vn -0.4339 0.0000 0.9010
usemtl Material.001
s off
f 2/1/1 1/2/1 7/3/1 6/4/1 5/5/1 4/6/1 3/7/1
f 13/8/2 14/9/2 21/10/2 20/11/2
f 30/12/3 29/13/3 12/14/3 11/15/3
f 32/16/4 31/17/4 10/18/4 9/19/4
f 34/20/5 33/21/5 8/22/5 14/23/5
f 29/13/6 35/24/6 13/25/6 12/14/6
f 31/17/7 30/12/7 11/15/7 10/18/7
f 33/21/8 32/16/8 9/19/8 8/22/8
f 35/24/9 34/20/9 14/23/9 13/25/9
f 19/26/10 20/27/10 27/28/10 26/29/10
f 11/30/11 12/31/11 19/32/11 18/33/11
f 9/34/12 10/35/12 17/36/12 16/37/12
f 14/9/13 8/38/13 15/39/13 21/10/13
f 12/31/14 13/8/14 20/11/14 19/32/14
f 10/35/15 11/30/15 18/33/15 17/36/15
f 8/38/16 9/34/16 16/37/16 15/39/16
f 23/40/17 24/41/17 25/42/17 26/43/17 27/44/17 28/45/17 22/46/17
f 17/47/18 18/48/18 25/49/18 24/50/18
f 15/51/19 16/52/19 23/53/19 22/54/19
f 20/27/20 21/55/20 28/56/20 27/28/20
f 18/48/21 19/26/21 26/29/21 25/49/21
f 16/52/22 17/47/22 24/50/22 23/53/22
f 21/55/23 15/51/23 22/54/23 28/56/23
f 6/57/9 7/58/9 34/59/9 35/60/9
f 1/61/8 2/62/8 32/63/8 33/64/8
f 3/65/7 4/66/7 30/67/7 31/68/7
f 5/69/6 6/57/6 35/60/6 29/70/6
f 7/58/5 1/61/5 33/64/5 34/59/5
f 2/62/4 3/65/4 31/68/4 32/63/4
f 4/66/3 5/69/3 29/70/3 30/67/3
