# Blender 3.1.2
# www.blender.org
mtllib platform.mtl
o Circle.001
v 0.000003 -0.000004 -2.850273
v -2.710761 -0.000004 -0.880788
v -1.675341 -0.000004 2.305907
v 1.675348 -0.000004 2.305906
v 2.710767 -0.000004 -0.880788
v 0.000003 0.694983 -2.850273
v -2.710761 0.694983 -0.880788
v -1.675341 0.694983 2.305907
v 1.675348 0.694983 2.305906
v 2.710767 0.694983 -0.880788
v -0.014107 1.161159 -1.305594
v -1.246044 1.161159 -0.390036
v -0.755985 1.161159 1.064529
v 0.778824 1.161159 1.047941
v 1.237329 1.161159 -0.416876
v -0.014107 1.315926 -1.305594
v -1.246044 1.315926 -0.390036
v -0.755985 1.315926 1.064529
v 0.778824 1.315926 1.047941
v 1.237329 1.315926 -0.416876
v -1.675341 0.347489 2.305907
v 1.675348 0.347489 2.305906
v 0.000003 0.347489 -2.850273
v -2.710761 0.347489 -0.880788
v 2.710767 0.347489 -0.880788
v -1.675341 0.521236 2.305907
v 0.000003 0.521236 -2.850273
v 1.675348 0.521236 2.305906
v -2.710761 0.521236 -0.880788
v 2.710767 0.521236 -0.880788
v 0.778824 1.238542 1.047941
v 1.237329 1.238542 -0.416876
v -1.246044 1.238542 -0.390036
v -0.755985 1.238542 1.064529
v -0.014107 1.238542 -1.305594
vn -0.0000 -0.0000 -1.0000
vn 0.5878 -0.0000 0.8090
vn -0.9511 -0.0000 -0.3090
vn 0.9511 -0.0000 -0.3090
vn -0.5878 -0.0000 0.8090
vn -0.2045 -0.9369 0.2835
vn -0.0012 -0.9369 -0.3495
vn 0.2064 -0.9369 0.2821
vn -0.3328 -0.9369 -0.1069
vn 0.3320 -0.9369 -0.1091
vn -0.9543 -0.0000 -0.2987
vn 0.9477 -0.0000 -0.3193
vn -0.5790 -0.0000 0.8153
vn -0.0108 -0.0000 -0.9999
vn 0.5965 -0.0000 0.8026
vn -0.0000 -1.0000 -0.0000
vn -0.0000 1.0000 -0.0000
vt 0.696360 0.185494
vt 0.704912 0.426423
vt 0.705392 0.402059
vt 0.818066 0.234925
vt 0.744274 0.431887
vt 0.705392 0.213215
vt 0.818066 0.394886
vt 0.744274 0.271926
vt 0.730529 0.431887
vt 0.696360 0.444317
vt 0.758019 0.431888
vt 0.730529 0.271926
vt 0.621142 0.314906
vt 0.761275 0.262656
vt 0.758019 0.271926
vt 0.327780 0.834086
vt 0.406245 0.539851
vt 0.619814 0.298002
vt 0.670080 0.295705
vt 0.327780 0.539851
vt 0.367013 0.834080
vt 0.564604 0.282331
vt 0.665609 0.286170
vt 0.181564 0.812654
vt 0.367012 0.539851
vt 0.775949 0.260056
vt 0.560133 0.272796
vt 0.416949 0.812654
vt 0.416951 0.811782
vt 0.670472 0.246681
vt 0.771478 0.286170
vt 0.181564 0.811782
vt 0.406245 0.834083
vt 0.725290 0.311376
vt 0.666002 0.272796
vt 0.685871 0.441316
vt 0.670080 0.461106
vt 0.521104 0.690602
vt 0.527412 0.825384
vt 0.630661 0.425646
vt 0.665609 0.451571
vt 0.521104 0.825385
vt 0.882597 0.825985
vt 0.775949 0.425456
vt 0.626191 0.416111
vt 0.814155 0.851095
vt 0.822601 0.689513
vt 0.736530 0.389996
vt 0.771478 0.451570
vt 0.885068 0.851095
vt 0.882597 0.831027
vt 0.725290 0.476776
vt 0.732060 0.416111
vt 0.527412 0.690602
vt 0.822601 0.694555
vt 0.278797 0.690760
vt 0.267989 0.748488
vt 0.820212 0.587429
vt 0.267989 0.740821
vt 0.160163 0.748488
vt 0.813693 0.810829
vt 0.160163 0.740821
vt 0.278797 0.690279
vt 0.641705 0.872113
vt 0.281793 0.541221
vt 0.278797 0.615991
vt 0.541930 0.686589
vt 0.281793 0.615510
vt 0.278797 0.765048
vt 0.652254 0.510644
vt 0.731003 0.271926
vt 0.717257 0.431887
vt 0.845575 0.562921
vt 0.871377 0.756426
vt 0.744748 0.431888
vt 0.717257 0.271926
vt 0.851513 0.851115
vt 0.871377 0.562921
vt 0.704912 0.406838
vt 0.689725 0.402059
vt 0.862776 0.562921
vt 0.836974 0.756428
vt 0.731003 0.431887
vt 0.689725 0.213215
vt 0.845575 0.756424
vt 0.836974 0.562921
vt 0.761275 0.243072
vt 0.744748 0.271926
vt 0.862776 0.756426
vt 0.696708 0.851115
vt 0.181564 0.827911
vt 0.379218 0.539851
vt 0.837548 0.562921
vt 0.863350 0.756426
vt 0.339985 0.834086
vt 0.418450 0.539851
vt 0.854749 0.562921
vt 0.828947 0.756428
vt 0.416949 0.827911
vt 0.416951 0.796525
vt 0.851513 0.861149
vt 0.863350 0.562921
vt 0.339985 0.539851
vt 0.379218 0.834080
vt 0.837548 0.756424
vt 0.828947 0.562921
vt 0.181564 0.796525
vt 0.418450 0.834083
vt 0.854749 0.756426
vt 0.696708 0.861149
vt 0.278797 0.541221
vt 0.281793 0.615991
vt 0.885068 0.846627
vt 0.882597 0.835496
vt 0.278797 0.615510
vt 0.281793 0.765048
vt 0.532848 0.690602
vt 0.811683 0.835496
vt 0.267989 0.734026
vt 0.160163 0.741693
vt 0.526541 0.825385
vt 0.882597 0.830454
vt 0.160163 0.734026
vt 0.281793 0.690279
vt 0.814155 0.846627
vt 0.811683 0.830454
vt 0.281793 0.690760
vt 0.267989 0.741693
vt 0.526541 0.690602
vt 0.532848 0.825384
s 0
usemtl Material
f 28/99/1 26/91/1 8/24/1 9/28/1
f 29/103/2 27/95/2 6/16/2 7/20/2
f 30/107/3 28/100/3 9/29/3 10/32/3
f 26/92/4 29/104/4 7/21/4 8/25/4
f 27/96/5 30/108/5 10/33/5 6/17/5
f 6/18/6 10/34/6 15/52/6 11/36/6
f 9/30/7 8/26/7 13/44/7 14/48/7
f 7/22/8 6/19/8 11/37/8 12/40/8
f 10/35/9 9/31/9 14/49/9 15/53/9
f 8/27/10 7/23/10 12/41/10 13/45/10
f 32/115/11 31/111/11 19/65/11 20/68/11
f 34/123/12 33/119/12 17/59/12 18/62/12
f 35/127/13 32/116/13 20/69/13 16/56/13
f 31/112/14 34/124/14 18/63/14 19/66/14
f 33/120/15 35/128/15 16/57/15 17/60/15
f 17/61/16 16/58/16 20/70/16 19/67/16 18/64/16
f 2/4/17 3/7/17 4/10/17 5/13/17 1/1/17
f 1/2/5 5/14/5 25/87/5 23/79/5
f 3/8/4 2/5/4 24/83/4 21/71/4
f 5/15/3 4/11/3 22/75/3 25/88/3
f 2/6/2 1/3/2 23/80/2 24/84/2
f 4/12/1 3/9/1 21/72/1 22/76/1
f 23/81/5 25/89/5 30/109/5 27/97/5
f 21/73/4 24/85/4 29/105/4 26/93/4
f 25/90/3 22/77/3 28/101/3 30/110/3
f 24/86/2 23/82/2 27/98/2 29/106/2
f 22/78/1 21/74/1 26/94/1 28/102/1
f 12/42/15 11/38/15 35/129/15 33/121/15
f 14/50/14 13/46/14 34/125/14 31/113/14
f 11/39/13 15/54/13 32/117/13 35/130/13
f 13/47/12 12/43/12 33/122/12 34/126/12
f 15/55/11 14/51/11 31/114/11 32/118/11
